<svg xmlns="http://www.w3.org/2000/svg" viewBox="0 0 1000 1000"><defs><style>.cls-3{fill:#cecece}.cls-5{fill:#212121}.cls-9{fill:#333}.cls-10{fill:#79add1}</style></defs><g id="Body"><path d="M511.99 151.31h-91.16v-86c0-2.29 2.3-3.4 4.45-2.62 28.58 10.33 56.04 10.16 82.25 0 2.13-.83 4.45.34 4.45 2.62v86Z" style="fill:#cc3e56"/><rect width="377.17" height="721.86" x="277.83" y="97.49" rx="11.5" ry="11.5" style="fill:#1c1c1c"/><path d="M293.07 496.61h346.7v298.15h-346.7z" class="cls-9"/><path d="M634.76 501.61v288.15h-336.7V501.61zm10-10h-356.7v308.15h356.7z" style="fill:#2b2b2b"/><path d="M288.07 117.08h356.7v308.15h-356.7z" class="cls-9"/><path d="M288.07 425.23h356.7v66.39h-356.7z" style="fill:#3d3d3d"/></g><g id="Buttons"><rect width="50.31" height="43.55" x="325.53" y="526.81" class="cls-3" rx="5.01" ry="5.01"/><rect width="50.31" height="43.55" x="404.8" y="526.81" class="cls-3" rx="5.01" ry="5.01"/><rect width="50.31" height="43.55" x="479.37" y="526.81" class="cls-3" rx="5.01" ry="5.01"/><rect width="50.31" height="43.55" x="556.99" y="526.81" class="cls-3" rx="5.01" ry="5.01"/><rect width="50.31" height="43.55" x="325.53" y="623.91" class="cls-3" rx="5.01" ry="5.01"/><rect width="50.31" height="43.55" x="404.8" y="623.91" class="cls-3" rx="5.01" ry="5.01"/><rect width="50.31" height="43.55" x="479.37" y="623.91" class="cls-3" rx="5.01" ry="5.01"/><rect width="50.31" height="43.55" x="556.99" y="623.91" class="cls-10" rx="5.01" ry="5.01"/><rect width="50.31" height="43.55" x="325.53" y="721.01" class="cls-3" rx="5.01" ry="5.01"/><rect width="50.31" height="43.55" x="404.8" y="721.01" class="cls-3" rx="5.01" ry="5.01"/><rect width="50.31" height="43.55" x="479.37" y="721.01" class="cls-3" rx="5.01" ry="5.01"/><rect width="50.31" height="43.55" x="556.99" y="721.01" class="cls-10" rx="5.01" ry="5.01"/></g><g id="Knob"><circle cx="466.41" cy="261.05" r="113.94" style="fill:#141414"/><circle cx="466.41" cy="261.05" r="90.57" class="cls-5"/><circle cx="466.41" cy="261.05" r="71.34" style="fill:#c9cacc"/><path d="M430.57 322.75c-21.23-12.36-35.49-35.36-35.49-61.69 0-39.4 31.94-71.34 71.34-71.34 14.42 0 27.85 4.28 39.07 11.64" style="fill:#ddd"/><path d="m482.06 211.64-15.42-16.21a.34.34 0 0 0-.28-.1c-.1 0-.21.02-.28.1l-15.42 16.21c-.05.05-.08.12-.08.19v20.5c0 .27.38.4.58.19l15.2-15.98 15.2 15.98c.2.21.58.08.58-.19v-20.5c0-.07-.03-.14-.08-.19" class="cls-5"/><path d="M458.49 225.05h6.71v23.34h-6.71zm9.42 0h6.71v23.34h-6.71zm-16.85 85.42 15.42 16.21c.08.08.18.11.28.1.1 0 .21-.02.28-.1l15.42-16.21c.05-.05.08-.12.08-.19v-20.5c0-.27-.38-.4-.58-.19l-15.2 15.98-15.2-15.98c-.2-.21-.58-.08-.58.19v20.5c0 .07.03.14.08.19" class="cls-5"/><path d="M467.91 273.71h6.71v23.34h-6.71zm-9.42 0h6.71v23.34h-6.71zm57.78 3.24 16.21-15.42c.08-.08.11-.18.1-.28 0-.1-.02-.21-.1-.28l-16.21-15.42a.27.27 0 0 0-.19-.08h-20.5c-.27 0-.4.38-.19.58l15.98 15.2-15.98 15.2c-.21.2-.08.58.19.58h20.5c.07 0 .14-.03.19-.08" class="cls-5"/><path d="M479.52 253.39h23.34v6.71h-23.34zm0 9.41h23.34v6.71h-23.34zm-62.96-17.24-16.21 15.42c-.08.08-.11.18-.1.28 0 .1.02.21.1.28l16.21 15.42c.05.05.12.08.19.08h20.5c.27 0 .4-.38.19-.58l-15.98-15.2 15.98-15.2c.21-.2.08-.58-.19-.58h-20.5c-.07 0-.14.03-.19.08" class="cls-5"/><path d="M429.97 262.41h23.34v6.71h-23.34zm0-9.41h23.34v6.71h-23.34zm42.04 5.35c0 .87-.28 1.62-.85 2.22-.57.61-1.44 1.06-2.63 1.35v.04l4.37 5.15h-3.23l-4-4.85h-1.84v4.85h-2.69v-12.53h4.47c.74 0 1.43.04 2.06.11s1.18.18 1.64.32c.86.28 1.53.7 2 1.25s.7 1.25.7 2.08Zm-6.85 2c.62 0 1.14-.02 1.56-.07q.645-.075 1.08-.21c.54-.17.92-.41 1.12-.72.21-.3.31-.65.31-1.04 0-.34-.08-.64-.25-.89-.16-.26-.44-.46-.84-.61-.26-.1-.58-.17-.97-.22s-.87-.07-1.44-.07h-1.92v3.84h1.33Z" class="cls-5"/></g></svg>