<svg xmlns="http://www.w3.org/2000/svg" id="Layer_1" data-name="Layer 1" viewBox="0 0 1000 1000"><defs><style>.cls-1{stroke-width:2.03px}.cls-1,.cls-2{fill:none;stroke:#262c34;stroke-miterlimit:10}.cls-3{fill:#7cc355}.cls-4{fill:#7c828a}.cls-5{fill:#31363e}.cls-6{fill:#3c8191}.cls-7{fill:#479fb9}.cls-2{stroke-width:2.03px}.cls-8{fill:#aa5a58}.cls-9{fill:#1c2129}.cls-10{fill:#c46e69}</style></defs><g id="Joycons"><path d="M536.08 805.87h11.91v74.54h-11.91zm0-682.34h11.91v92.29h-11.91zm273.15 170.5h7.18s-7.41-83.33-53-126.15c-45.6-42.82-103-53.93-154.15-54.39v32.18l199.98 148.35Z" class="cls-9"/><path d="M584.08 121.12h38.52c105.33 0 190.85 85.52 190.85 190.85v393.64c0 99.84-81.06 180.9-180.9 180.9h-48.47c-1.11 0-2.01-.9-2.01-2.01V123.13c0-1.11.9-2.01 2.01-2.01" class="cls-5"/><path d="M603.42 195.58h40.12v12.34h-40.12z" class="cls-9"/><path d="M617.31 221.8v-40.12h12.34v40.12z" class="cls-9"/><circle cx="693.47" cy="508.91" r="65.43" class="cls-10"/><circle cx="693.47" cy="508.91" r="56.63" class="cls-9"/><circle cx="693.47" cy="508.42" r="41.7" class="cls-1"/><path d="M693.47 466.72v-8.16m0 100.71v-8.17m-41.7-42.68h-8.16m99.73 0h-8.17" class="cls-1"/><path d="M623.92 705.41h41.66v41.66h-41.66z" class="cls-9"/><circle cx="643.61" cy="647.16" r="26.85" class="cls-9"/><circle cx="695.09" cy="368.44" r="28.39" class="cls-9"/><circle cx="695.09" cy="258.57" r="28.39" class="cls-9"/><circle cx="636.76" cy="315.36" r="28.39" class="cls-9"/><circle cx="750.18" cy="315.36" r="28.39" class="cls-9"/><rect width="13.06" height="128.07" x="544.66" y="632.38" class="cls-8" rx="2.82" ry="2.82"/><rect width="13.06" height="131.35" x="544.66" y="245.57" class="cls-8" rx="2.85" ry="2.85"/><path d="M572.45 116.03h-25.87c-8.2 0-8.2 7.84-8.2 7.84v98.74c3.65 15.11 6.67 17.38 11.23 25.96v127.5c-3.24 5.89-7 19.98-7 19.98v216.18c0 7.17 7 20.11 7 20.11v121.63s-11.23 18.39-11.23 42.4v82.3s0 7.84 8.2 7.84h21.12c7.94 0 14.37-6.43 14.37-14.37V125.66c0-5.32-4.31-9.62-9.62-9.62Z" class="cls-10"/><path d="M544.92 203.92h30.38v9.35h-30.38z" class="cls-8"/><path d="M555.44 223.79v-30.38h9.35v30.38z" class="cls-8"/><path d="M556.48 460.17h10.07v10.07h-10.07z" class="cls-3"/><path d="M556.48 486.3h10.07v10.07h-10.07zm0 26.12h10.07v10.07h-10.07zm0 26.13h10.07v10.07h-10.07z" class="cls-4"/><path d="M190.77 294.03h-7.18s7.41-83.33 53-126.15c45.6-42.82 103-53.93 154.15-54.39v32.18L190.76 294.02Z" class="cls-9"/><path d="M416.2 886.5h-48.47c-99.84 0-180.9-81.06-180.9-180.9V311.96c0-105.33 85.52-190.85 190.85-190.85h38.52c1.11 0 2.01.9 2.01 2.01v761.37c0 1.11-.9 2.01-2.01 2.01" class="cls-5"/><path d="M352.71 195.58h40.12v12.34h-40.12z" class="cls-9"/><circle cx="305.03" cy="314" r="65.43" class="cls-7"/><circle cx="305.03" cy="314" r="56.63" class="cls-9"/><circle cx="305.03" cy="313.5" r="41.7" class="cls-2"/><path d="M305.03 271.8v-8.16m0 100.71v-8.16m-41.7-42.69h-8.17m99.73 0h-8.16" class="cls-2"/><path d="M331.72 626.71h41.66v41.66h-41.66z" class="cls-9"/><circle cx="305.03" cy="563.37" r="28.39" class="cls-9"/><circle cx="305.03" cy="453.5" r="28.39" class="cls-9"/><circle cx="246.7" cy="510.29" r="28.39" class="cls-9"/><circle cx="360.12" cy="510.29" r="28.39" class="cls-9"/><path d="M464.08 880.4h-11.91v-74.54h11.91zm0-664.59h-11.91v-92.29h11.91z" class="cls-9"/><rect width="13.06" height="128.07" x="442.44" y="632.38" class="cls-6" rx="2.82" ry="2.82" transform="rotate(-180 448.97 696.41)"/><rect width="13.06" height="131.35" x="442.44" y="245.57" class="cls-6" rx="2.85" ry="2.85" transform="rotate(-180 448.97 311.25)"/><path d="M427.72 116.03h25.87c8.2 0 8.2 7.84 8.2 7.84v98.74c-3.65 15.11-6.67 17.38-11.23 25.96v127.5c3.24 5.89 7 19.98 7 19.98v216.18c0 7.17-7 20.11-7 20.11v121.63s11.23 18.39 11.23 42.4v82.3s0 7.84-8.2 7.84h-21.12c-7.94 0-14.37-6.43-14.37-14.37V125.66c0-5.32 4.31-9.62 9.62-9.62Z" class="cls-7"/><path d="M455.24 213.27h-30.38v-9.35h30.38z" class="cls-6"/><path d="M443.68 470.25h-10.07v-10.07h10.07z" class="cls-3"/><path d="M443.68 496.37h-10.07V486.3h10.07zm0 26.13h-10.07v-10.07h10.07zm0 26.12h-10.07v-10.07h10.07z" class="cls-4"/></g></svg>