<svg xmlns="http://www.w3.org/2000/svg" id="Joycons" viewBox="0 0 1000 1000"><defs><style>.cls-2{stroke-width:2.08px}.cls-2,.cls-3{fill:none;stroke:#262c34;stroke-miterlimit:10}.cls-4{fill:#31363e}.cls-3{stroke-width:2.08px}.cls-6{fill:#1c2129}</style></defs><path d="M313.96 122.18v-5.77c0-1.62-1.31-2.94-2.93-2.92-9.49.08-39.42.31-50.97.32-.18 0-.35 0-.53.02-42.42 2.62-68.49 16.51-89.11 32.41-25.32 19.52-48.94 48.33-54.81 66.16-.63 1.9.79 3.86 2.79 3.86h9.43l184.5-91.46c1-.49 1.63-1.51 1.63-2.62" class="cls-6"/><path d="M112.71 121.44h87.14c90.17 0 163.38 73.21 163.38 163.38v432.53c0 93.36-75.8 169.16-169.16 169.16h-81.35c-4.14 0-7.51-3.36-7.51-7.51V128.95c0-4.14 3.36-7.51 7.51-7.51Z" style="fill:#28aecb" transform="rotate(-180 234.215 503.975)"/><rect width="47.47" height="47.47" x="261.34" y="648.39" class="cls-6" rx="10.01" ry="10.01"/><circle cx="243.58" cy="582.62" r="29.02" class="cls-6"/><circle cx="243.58" cy="470.33" r="29.02" class="cls-6"/><circle cx="183.97" cy="528.37" r="29.02" class="cls-6"/><circle cx="299.89" cy="528.37" r="29.02" class="cls-6"/><path d="M299.03 191.59h41.01v12.62h-41.01z" class="cls-6"/><circle cx="241.85" cy="316.27" r="57.88" class="cls-6"/><circle cx="241.85" cy="315.77" r="42.62" class="cls-3"/><path d="M241.85 273.15v-8.34m0 102.93v-8.34m-42.63-43.63h-8.34m101.93 0h-8.34" class="cls-3"/><rect width="35.54" height="107.54" x="437.38" y="271.47" class="cls-6" rx="5.98" ry="5.98" transform="rotate(-180 455.15 325.24)"/><rect width="35.54" height="107.54" x="437.38" y="574.35" class="cls-6" rx="5.88" ry="5.88" transform="rotate(-180 455.15 628.125)"/><path d="M383.97 854.42c-1.29-1.59-3.34-6.68-10.71-7.9-9.11-1.67-7.55-3.12-9.42-8.13-.2-.37-.41-.65-.61-.86V121.44c55.16 0 99.88 44.72 99.88 99.88v50.15c-11.39 43.8-9.84 80.79 0 107.54v195.34c-10.02 35.49-9.59 70.96 0 107.54v94.14c0 45.62-32.56 84.72-75.22 94.61-1.3.3-2.53-.73-2.43-2.06.32-4.16.12-11.38-1.49-14.17Z" class="cls-4"/><path d="M433.67 203.68h-41.01v-12.62h41.01zm252.37-81.5v-5.77c0-1.62 1.31-2.94 2.93-2.92 9.49.08 39.42.31 50.97.32.18 0 .35 0 .53.02 42.42 2.62 68.49 16.51 89.11 32.41 25.32 19.52 48.94 48.33 54.81 66.16.63 1.9-.79 3.86-2.79 3.86h-9.43l-184.5-91.46c-1-.49-1.63-1.51-1.63-2.62" class="cls-6"/><path d="M644.28 121.44h81.35c93.36 0 169.16 75.8 169.16 169.16v432.53c0 90.17-73.21 163.38-163.38 163.38h-87.14c-4.14 0-7.51-3.36-7.51-7.51V128.95c0-4.14 3.36-7.51 7.51-7.51Z" style="fill:#e15a56"/><rect width="35.54" height="107.54" x="527.08" y="271.47" class="cls-6" rx="5.98" ry="5.98"/><rect width="35.54" height="107.54" x="527.08" y="574.35" class="cls-6" rx="5.88" ry="5.88"/><circle cx="758.65" cy="370.53" r="29.02" class="cls-6"/><path d="M714.23 698.98c-14.81 0-26.85-12.04-26.85-26.85s12.05-26.85 26.85-26.85 26.85 12.04 26.85 26.85-12.04 26.85-26.85 26.85" class="cls-6"/><path d="M714.23 648.39c13.11 0 23.74 10.63 23.74 23.74s-10.63 23.74-23.74 23.74-23.74-10.63-23.74-23.74 10.63-23.74 23.74-23.74m0-6.23c-16.52 0-29.97 13.44-29.97 29.97s13.44 29.97 29.97 29.97 29.97-13.44 29.97-29.97-13.44-29.97-29.97-29.97" style="fill:#969792"/><circle cx="758.65" cy="258.24" r="29.02" class="cls-6"/><circle cx="699.04" cy="316.27" r="29.02" class="cls-6"/><circle cx="814.95" cy="316.27" r="29.02" class="cls-6"/><path d="M659.23 191.06h41.01v12.62h-41.01z" class="cls-6"/><path d="M673.42 217.87v-41.01h12.62v41.01z" class="cls-6"/><circle cx="756.85" cy="528.37" r="57.88" class="cls-6"/><circle cx="756.85" cy="527.87" r="42.62" class="cls-2"/><path d="M756.85 485.25v-8.34m0 102.93v-8.34m-42.62-43.63h-8.35m101.93 0h-8.34" class="cls-2"/><path d="M616.04 854.42c1.29-1.59 3.34-6.68 10.71-7.9 9.11-1.67 7.55-3.12 9.42-8.13.2-.37.41-.65.61-.86V121.44c-55.16 0-99.88 44.72-99.88 99.88v50.15c11.39 43.8 9.84 80.79 0 107.54v195.34c10.02 35.49 9.59 70.96 0 107.54v94.14c0 45.62 32.56 84.72 75.22 94.61 1.3.3 2.53-.73 2.43-2.06-.32-4.16-.12-11.38 1.49-14.17Z" class="cls-4"/><path d="M566.34 191.06h41.01v12.62h-41.01z" class="cls-6"/><path d="M580.53 217.87v-41.01h12.62v41.01z" class="cls-6"/><path d="M613.55 788.61c-3.68-.21-7.34-.55-11-.92-1.29.13-2.58.23-3.86.29-4.67.21-9.57-.52-14.37-1.93-.93-.05-1.85-.11-2.78-.15-13.09-.52-26.3-1.37-39.14-4.07-1.78-.37-3.53-.83-5.26-1.35 3.48 52 46.76 93.11 99.65 93.11V788.8c-7.73.31-15.48.25-23.23-.2Zm-227.1 0c3.68-.21 7.34-.55 11-.92 1.29.13 2.58.23 3.86.29 4.67.21 9.57-.52 14.37-1.93.93-.05 1.85-.11 2.78-.15 13.09-.52 26.3-1.37 39.14-4.07 1.78-.37 3.53-.83 5.26-1.35-3.48 52-46.76 93.11-99.65 93.11V788.8c7.73.31 15.48.25 23.23-.2Z" class="cls-4"/></svg>